<?xml version="1.0" encoding="UTF-8" standalone="no"?>
<svg
   xmlns:dc="http://purl.org/dc/elements/1.1/"
   xmlns:cc="http://creativecommons.org/ns#"
   xmlns:rdf="http://www.w3.org/1999/02/22-rdf-syntax-ns#"
   xmlns:svg="http://www.w3.org/2000/svg"
   xmlns="http://www.w3.org/2000/svg"
   xmlns:sodipodi="http://sodipodi.sourceforge.net/DTD/sodipodi-0.dtd"
   xmlns:inkscape="http://www.inkscape.org/namespaces/inkscape"
   viewBox="0 0 393.33334 393.33334"
   height="393.33334"
   width="393.33334"
   xml:space="preserve"
   id="svg2"
   version="1.1"
   sodipodi:docname="lise-logo.svg"
   inkscape:version="0.92.3 (2405546, 2018-03-11)"><sodipodi:namedview
     pagecolor="#ffffff"
     bordercolor="#666666"
     borderopacity="1"
     objecttolerance="10"
     gridtolerance="10"
     guidetolerance="10"
     inkscape:pageopacity="0"
     inkscape:pageshadow="2"
     inkscape:window-width="2493"
     inkscape:window-height="1385"
     id="namedview34"
     showgrid="false"
     inkscape:zoom="3.3941125"
     inkscape:cx="83.343749"
     inkscape:cy="207.89424"
     inkscape:window-x="67"
     inkscape:window-y="27"
     inkscape:window-maximized="1"
     inkscape:current-layer="svg2" /><metadata
     id="metadata8"><rdf:RDF><cc:Work
         rdf:about=""><dc:format>image/svg+xml</dc:format><dc:type
           rdf:resource="http://purl.org/dc/dcmitype/StillImage" /><dc:title></dc:title></cc:Work></rdf:RDF></metadata><defs
     id="defs6"><clipPath
       id="clipPath54"
       clipPathUnits="userSpaceOnUse"><path
         id="path52"
         d="m 687.992,858.91 h 1580 v 1580 h -1580 z" /></clipPath></defs><path
     id="path14"
     style="fill:#493c50;fill-opacity:1;fill-rule:nonzero;stroke:none;stroke-width:0.13333333"
     d="M 5.2083332e-4,393.33333 H 393.33384 V 6.5e-6 H 5.2083332e-4 Z"
     inkscape:connector-curvature="0" /><path
     id="path16"
     style="fill:#ffffff;fill-opacity:1;fill-rule:nonzero;stroke:none;stroke-width:0.13333333"
     d="m 27.643733,312.08547 h -4.795867 v -19.95054 c 0.02093,-1.1656 0.971467,-2.10426 2.143333,-2.10426 h 0.423334 l 0.0052,-0.33334 h -7.318667 l 0.0052,0.33334 H 18.5292 c 1.1692,0 2.122399,0.93866 2.143199,2.10426 v 18.53694 c -0.0208,1.1656 -0.971333,2.10413 -2.143199,2.10413 h -0.421867 l -0.0063,0.3344 h 13.8672 l 1.950533,-5.4036 -0.336533,-0.002 c -1.032267,2.54693 -2.392667,4.38027 -5.938533,4.38027"
     inkscape:connector-curvature="0" /><path
     id="path18"
     style="fill:#ffffff;fill-opacity:1;fill-rule:nonzero;stroke:none;stroke-width:0.13333333"
     d="m 43.279199,290.02653 h 0.421867 l 0.0063,-0.3344 h -7.3172 l 0.0036,0.3344 H 36.8183 c 1.166666,0 2.112,0.9308 2.1432,2.0896 v 18.55467 c -0.02347,1.1652 -0.974,2.10373 -2.1432,2.10373 h -0.424534 l -0.0036,0.3348 h 7.3172 l -0.0037,-0.3348 h -0.4244 c -1.171867,0 -2.121333,-0.93853 -2.142267,-2.10373 v -18.56147 c 0.0328,-1.1572 0.978134,-2.0828 2.142267,-2.0828"
     inkscape:connector-curvature="0" /><path
     id="path20"
     style="fill:#ffffff;fill-opacity:1;fill-rule:nonzero;stroke:none;stroke-width:0.13333333"
     d="m 51.411999,297.15987 c -1.054667,-0.976 -1.348,-2.212 -1.348,-3.08387 0,-2.03853 1.65,-3.8468 4.1136,-3.8468 2.084933,0 3.7708,1.30413 3.764133,3.44427 h 0.3228 v -3.7068 -0.39734 h -1.326533 c -0.888,-0.19333 -1.991067,-0.34386 -2.868667,-0.34386 -3.812,0 -5.878667,2.83333 -5.878667,5.6532 0,1.2948 0.460934,2.9104 1.8124,4.14533 l 6.408934,5.952 c 0.8344,0.77453 1.312533,1.80947 1.312533,3.11613 0,2.67187 -2.040133,4.3464 -4.483333,4.4824 -2.975067,0.164 -5.158934,-2.0412 -4.821467,-5.48813 h -0.294267 c -0.5104,1.5 -0.6364,3.6308 -0.3864,4.66413 1.314534,1.35987 4.024534,1.82814 5.661467,1.82814 3.845867,0 6.264,-2.55627 6.264,-6.25627 0,-1.35053 -0.342133,-2.84373 -1.680667,-4.07707 l -6.571866,-6.08546"
     inkscape:connector-curvature="0" /><path
     id="path22"
     style="fill:#ffffff;fill-opacity:1;fill-rule:nonzero;stroke:none;stroke-width:0.13333333"
     d="M 73.112532,312.08547 H 68.315598 V 302.064 h 5.687467 c 0.880266,0.0344 1.5824,0.75733 1.5824,1.6464 v 0.49227 l 0.326533,0.005 v -5.29427 l -0.326533,0.005 v 0.4916 c 0,0.9 -0.721867,1.63227 -1.6172,1.6484 h -5.652667 v -10.3416 h 6.817733 c 1.045867,0.064 1.874,0.93067 1.874,1.99067 v 0.59626 l 0.336934,0.005 v -2.68693 -0.55733 -0.97867 c -0.619734,0.26147 -2.545867,0.59387 -3.986934,0.6084 h -9.775066 l 0.0052,0.33173 h 0.423467 c 1.1068,0 2.0172,0.84014 2.1312,1.91614 v 18.7292 c -0.02333,1.1656 -0.973334,2.10413 -2.1432,2.10413 h -0.422934 l -0.0052,0.3344 h 13.8672 l 1.946933,-5.4052 h -0.334933 c -1.0312,2.54693 -2.3932,4.38027 -5.937466,4.38027"
     inkscape:connector-curvature="0" /><path
     id="path24"
     style="fill:#ffffff;fill-opacity:1;fill-rule:nonzero;stroke:none;stroke-width:0.13333333"
     d="m 116.886,310.67707 -2.5964,-21.4396 h -0.30734 l -9.12386,20.17293 -9.335469,-20.18493 h -0.311467 l -2.514533,21.4532 c -0.172933,1.32293 -1.242267,2.09586 -2.438533,2.09586 h -0.532934 v 0.3348 h 6.478134 v -0.31613 h -0.5224 c -0.719734,-0.001 -1.368134,-0.70773 -1.301467,-1.4292 l 1.466133,-16.3468 8.555736,18.55987 h 0.31346 c 0.21774,-1.38387 1.14854,-3.41454 1.14854,-3.41454 l 7.03173,-15.6308 1.51507,16.83227 c 0.0641,0.72147 -0.5844,1.42667 -1.30574,1.4292 h -0.51826 v 0.31613 h 7.26826 v -0.3348 h -0.5312 c -1.19533,0 -2.26666,-0.77293 -2.43746,-2.09746"
     inkscape:connector-curvature="0" /><path
     id="path26"
     style="fill:#ffffff;fill-opacity:1;fill-rule:nonzero;stroke:none;stroke-width:0.13333333"
     d="m 127.7964,303.97707 4.20773,-10.7344 4.03187,10.7344 z m 13.5036,6.69226 -8.94267,-21.44386 h -0.29947 c 0,0.73706 -1.2396,3.44533 -1.2396,3.44533 l -7.5844,18 c -0.676,1.48653 -1.91453,2.10373 -2.93026,2.10373 h -0.30147 v 0.3348 h 6.73387 v -0.33066 h -0.29534 c -0.8584,0 -1.75,-0.75467 -1.28026,-2.08134 l 2.24226,-5.71613 h 9.00934 l 2.13866,5.69587 c 0.48934,1.33906 -0.40666,2.1016 -1.27066,2.1016 h -0.29334 v 0.33066 h 7.532 v -0.3348 h -0.28 c -1.024,0 -2.26,-0.6172 -2.93866,-2.1052"
     inkscape:connector-curvature="0" /><path
     id="path28"
     style="fill:#ffffff;fill-opacity:1;fill-rule:nonzero;stroke:none;stroke-width:0.13333333"
     d="m 162.59733,310.24373 c -1.29333,-1.41453 -4.17867,-5.53173 -4.17867,-5.53173 -0.648,-0.91613 -1.67733,-2.02293 -2.39333,-2.3532 3.21733,0 5.684,-3.14 5.684,-6.37853 0,-3.89747 -2.48667,-6.28547 -6.54133,-6.28547 h -9.02 l 0.004,0.33333 h 0.424 c 1.16933,0 2.12,0.93694 2.14266,2.10254 v 18.5584 c -0.0307,1.15626 -0.976,2.08693 -2.14,2.08693 h -0.424 l -0.007,0.3344 h 7.308 l -0.007,-0.3344 H 153.028 c -1.172,0 -2.12134,-0.93853 -2.144,-2.10413 V 290.736 c 0.43466,0.0161 2.46,-0.0667 4.16533,0.0265 2.49067,0.13587 4.06667,2.07347 4.14933,5.09894 0.02,0.73333 -0.0667,1.5344 -0.21333,2.00253 -0.948,3.01307 -3.48667,3.42667 -5.22,3.47347 -1.008,0.0276 -1.76933,0.012 -1.76933,0.012 v 0.30786 c 1.224,0 2.2,1.15987 3.072,2.2588 0.25866,0.3224 4.028,5.8068 4.408,6.25987 1.05066,1.25573 2.724,2.93333 5.836,2.93333 h 1.83333 v -0.33586 c -1.96533,-0.0177 -3.204,-1.05987 -4.548,-2.52974"
     inkscape:connector-curvature="0" /><path
     id="path30"
     style="fill:#ffffff;fill-opacity:1;fill-rule:nonzero;stroke:none;stroke-width:0.13333333"
     d="m 179.224,312.576 c -5.62267,-0.13587 -9.43734,-4.51867 -9.43734,-11.24107 0,-6.65626 3.74667,-11.10573 9.628,-11.10573 4.02,0.003 7.29734,2.076 8.31467,5.98013 h 0.27867 l -0.67734,-4.72293 c -1.95733,-1.28907 -4.63066,-2.25987 -7.90933,-2.25987 -7.36133,0 -12.14267,4.88547 -12.14267,12.14174 0,7.3932 4.95067,12.17706 11.94534,12.2104 4.64533,0 7.63733,-2.1016 9.39866,-4.9828 l 0.41067,-5.24894 h -0.27867 c -0.76266,6.8504 -4.78,9.21454 -9.53066,9.22907"
     inkscape:connector-curvature="0" /><path
     id="path32"
     style="fill:#ffffff;fill-opacity:1;fill-rule:nonzero;stroke:none;stroke-width:0.13333333"
     d="m 205.72799,290.0292 h 0.42134 c 0.9,0 1.71066,1.09893 1.19066,2.04013 l -0.0187,0.0323 -5.332,9.36347 -5.01067,-9.35987 c -0.492,-0.95053 0.19067,-2.07707 1.172,-2.07707 h 0.42 v -0.33333 h -8.22533 v 0.33333 h 0.456 c 1.39867,0 2.716,0.92654 3.364,1.95467 l 6.36933,10.6464 v 8.06147 c -0.0333,1.15626 -0.97866,2.08533 -2.144,2.08533 H 197.968 l -0.005,0.3344 h 7.316 l -0.005,-0.3344 h -0.42267 c -1.17067,0 -2.12,-0.93853 -2.14,-2.10413 v -8.00934 l 6.612,-10.69066 c 0.71467,-1.024 1.96133,-1.9412 3.356,-1.9412 h 0.468 v -0.33587 h -7.41867 v 0.3344"
     inkscape:connector-curvature="0" /><path
     id="path34"
     style="fill:#ffffff;fill-opacity:1;fill-rule:nonzero;stroke:none;stroke-width:0.13333333"
     d="m 228.59599,303.97707 4.208,-10.7344 4.03067,10.7344 z m 13.504,6.69226 -8.94133,-21.44386 h -0.3 c 0,0.73706 -1.24133,3.44533 -1.24133,3.44533 l -7.584,18 c -0.676,1.48653 -1.91467,2.10373 -2.92934,2.10373 h -0.30133 v 0.3348 h 6.73333 v -0.33066 h -0.296 c -0.85866,0 -1.74933,-0.75467 -1.27866,-2.08134 l 2.24133,-5.71613 h 9.00933 l 2.13867,5.69587 c 0.488,1.33906 -0.408,2.1016 -1.27067,2.1016 h -0.29466 v 0.33066 h 7.53333 v -0.3348 h -0.28 c -1.02533,0 -2.26133,-0.6172 -2.93867,-2.1052"
     inkscape:connector-curvature="0" /><path
     id="path36"
     style="fill:#ffffff;fill-opacity:1;fill-rule:nonzero;stroke:none;stroke-width:0.13333333"
     d="m 262.17466,290.0292 h 0.54533 c 0.95067,0 1.724,0.6724 1.768,1.61093 v 13.1932 c -0.008,4.61454 -2.98933,7.69067 -7.45466,7.69067 -4.26267,0 -7.10267,-3.248 -7.10267,-8.12133 v -12.76774 c 0.0387,-0.93653 0.81333,-1.60573 1.764,-1.60573 h 0.544 v -0.3344 h -6.79467 v 0.3344 h 0.54667 c 0.96533,0 1.74933,0.6948 1.768,1.65627 v 13.20933 c 0,5.20933 3.71067,8.68387 9.27733,8.68387 5.408,0 9.01334,-3.4984 9.01334,-8.74267 v -13.22813 c 0.0587,-0.92147 0.82666,-1.57867 1.768,-1.57867 h 0.544 v -0.3344 h -6.18667 v 0.3344"
     inkscape:connector-curvature="0" /><path
     id="path38"
     style="fill:#ffffff;fill-opacity:1;fill-rule:nonzero;stroke:none;stroke-width:0.13333333"
     d="m 274.71466,289.66147 c -1.44667,-0.008 -3.40267,-0.34534 -4.03067,-0.6084 v 4.20426 l 0.33734,-0.004 v -0.59574 c 0,-1.07186 0.848,-1.94693 1.908,-1.99226 h 6.344 v 20.06146 c -0.052,1.14014 -0.98934,2.04947 -2.14,2.04947 h -0.424 l -0.004,0.3344 h 7.32 l -0.005,-0.3344 h -0.42266 c -1.16,0 -2.10534,-0.92387 -2.14134,-2.0776 v -20.03333 h 6.34 c 1.06,0.0453 1.908,0.9204 1.908,1.99226 v 0.59574 l 0.33734,0.004 v -4.20426 c -0.628,0.26306 -2.584,0.6 -4.03067,0.6084 h -11.296"
     inkscape:connector-curvature="0" /><path
     id="path40"
     style="fill:#ffffff;fill-opacity:1;fill-rule:nonzero;stroke:none;stroke-width:0.13333333"
     d="m 302.22666,312.08547 h -4.79467 V 302.064 h 5.68667 c 0.87867,0.0344 1.58133,0.75733 1.58133,1.6464 v 0.49227 l 0.328,0.005 v -5.29427 l -0.328,0.005 v 0.4916 c 0,0.9 -0.72,1.63227 -1.616,1.6484 h -5.652 v -10.3416 h 6.81734 c 1.04533,0.064 1.87333,0.93067 1.87333,1.99067 v 0.59626 l 0.33733,0.005 v -2.68693 -0.55733 -0.97867 c -0.62133,0.26147 -2.54533,0.59387 -3.98666,0.6084 h -9.77467 l 0.004,0.33173 h 0.424 c 1.10533,0 2.016,0.84014 2.13067,1.91614 v 18.7292 c -0.024,1.1656 -0.97334,2.10413 -2.14267,2.10413 h -0.424 l -0.004,0.3344 h 13.86533 l 1.94667,-5.4052 h -0.33467 c -1.03066,2.54693 -2.39333,4.38027 -5.93733,4.38027"
     inkscape:connector-curvature="0" /><path
     id="path42"
     style="fill:#ffffff;fill-opacity:1;fill-rule:nonzero;stroke:none;stroke-width:0.13333333"
     d="m 328.37333,290.0292 h 0.544 c 0.95066,0 1.724,0.6724 1.76666,1.61093 v 13.1932 c -0.008,4.61454 -2.988,7.69067 -7.45466,7.69067 -4.26267,0 -7.10267,-3.248 -7.10267,-8.12133 v -12.76774 c 0.04,-0.93653 0.81333,-1.60573 1.764,-1.60573 h 0.54533 v -0.3344 h -6.79333 v 0.3344 h 0.544 c 0.96667,0 1.75067,0.6948 1.76933,1.65627 v 13.20933 c 0,5.20933 3.70934,8.68387 9.276,8.68387 5.40934,0 9.01467,-3.4984 9.01467,-8.74267 v -13.22813 c 0.0587,-0.92147 0.82533,-1.57867 1.76666,-1.57867 h 0.544 v -0.3344 h -6.18399 v 0.3344"
     inkscape:connector-curvature="0" /><path
     id="path44"
     style="fill:#ffffff;fill-opacity:1;fill-rule:nonzero;stroke:none;stroke-width:0.13333333"
     d="m 354.23599,310.24373 c -1.29333,-1.41453 -4.17867,-5.53173 -4.17867,-5.53173 -0.64666,-0.91613 -1.676,-2.02293 -2.39333,-2.3532 3.21733,0 5.684,-3.14 5.684,-6.37853 0,-3.89747 -2.48533,-6.28547 -6.54,-6.28547 h -9.02133 l 0.005,0.33333 h 0.42267 c 1.16933,0 2.12,0.93694 2.144,2.10254 v 18.5584 c -0.032,1.15626 -0.97734,2.08693 -2.14134,2.08693 h -0.424 l -0.007,0.3344 h 7.30933 l -0.007,-0.3344 h -0.42266 c -1.172,0 -2.12,-0.93853 -2.14134,-2.10413 V 290.736 c 0.432,0.0161 2.45867,-0.0667 4.164,0.0265 2.48934,0.13587 4.06667,2.07347 4.148,5.09894 0.0213,0.73333 -0.0667,1.5344 -0.21333,2.00253 -0.94933,3.01307 -3.48533,3.42667 -5.22,3.47347 -1.008,0.0276 -1.768,0.012 -1.768,0.012 v 0.30786 c 1.224,0 2.19867,1.15987 3.072,2.2588 0.25733,0.3224 4.02667,5.8068 4.40667,6.25987 1.05066,1.25573 2.724,2.93333 5.836,2.93333 h 1.83333 v -0.33586 c -1.964,-0.0177 -3.20133,-1.05987 -4.548,-2.52974"
     inkscape:connector-curvature="0" /><path
     id="path46"
     style="fill:#ffffff;fill-opacity:1;fill-rule:nonzero;stroke:none;stroke-width:0.13333333"
     d="m 374.89732,307.7052 c -1.03066,2.54693 -2.39333,4.38027 -5.93733,4.38027 h -4.79733 V 302.064 h 5.688 c 0.88,0.0344 1.58266,0.75733 1.58266,1.6464 v 0.49227 l 0.328,0.005 v -5.29427 l -0.328,0.005 v 0.4916 c 0,0.9 -0.72,1.63227 -1.61733,1.6484 h -5.65333 v -10.3416 h 6.81866 c 1.04534,0.064 1.87467,0.93067 1.87467,1.99067 v 0.59626 l 0.336,0.005 v -2.68693 -0.55733 -0.97867 c -0.62,0.26147 -2.54533,0.59387 -3.98667,0.6084 h -9.77466 l 0.005,0.33173 h 0.42267 c 1.10666,0 2.01733,0.84014 2.132,1.91614 v 18.7292 c -0.024,1.1656 -0.97334,2.10413 -2.144,2.10413 h -0.42267 l -0.005,0.3344 h 13.86666 l 1.94667,-5.4052 h -0.33467"
     inkscape:connector-curvature="0" /><path
     id="path60"
     style="fill:#ffffff;fill-opacity:1;fill-rule:nonzero;stroke:none;stroke-width:0.13333333"
     d="m 266.30449,168.2425 c 6.012,-1.772 12.69734,-1.82 17.584,0 -4.88666,1.79734 -11.572,1.74934 -17.584,0 z m -7.428,0.552 c -0.95866,0.57467 -1.82,1.17334 -2.63466,1.82 -1.24534,-0.45466 -2.684,-0.67066 -4.26534,-0.67066 -1.46,0 -3.23333,0.192 -5.00533,1.14933 0.0707,-1.10133 0.11867,-2.20267 0.11867,-3.32933 0,-0.79067 0,-1.58134 -0.048,-2.372 1.74933,0.93466 3.49733,1.12666 4.93466,1.12666 1.58134,0 3.02,-0.216 4.26534,-0.672 0.81466,0.648 1.676,1.24667 2.63466,1.82134 0.36,0.192 0.71867,0.384 1.07867,0.57466 -0.36,0.168 -0.71867,0.36 -1.07867,0.552 z m -7.68933,9.07867 c -1.53467,0.0733 -3.47467,0.24 -5.41467,1.27067 0.38267,-1.58134 0.67067,-3.16267 0.88534,-4.792 1.63066,-1.53334 3.45066,-1.988 5.31866,-1.988 0.79067,0 1.48667,0.072 2.13334,0.192 -1.48534,1.628 -2.444,3.42533 -2.92267,5.31733 z m 0,-19.28533 c 0.47867,1.89333 1.43733,3.68933 2.92267,5.31866 -0.64667,0.12 -1.34267,0.192 -2.13334,0.192 -1.82,0 -3.59333,-0.43066 -5.19733,-1.868 -0.168,-1.63066 -0.432,-3.21066 -0.76667,-4.792 1.844,0.90934 3.71334,1.07734 5.17467,1.14934 z m -24.41333,43.91466 c -0.83867,0.74267 -1.67734,1.46133 -2.564,2.132 -1.29334,0.98267 -2.63467,1.89333 -4.024,2.732 -6.70934,3.904 -14.51867,6.108 -22.808,6.108 -13.368,0 -25.396,-5.74933 -33.78,-14.90133 -0.624,-0.69467 -1.24533,-1.41334 -1.82133,-2.132 -6.348,-7.85733 -10.15734,-17.824 -10.15734,-28.67733 0,-10.37334 3.47334,-19.932 9.296,-27.62267 0.66934,-0.86267 1.38934,-1.74933 2.108,-2.564 2.97067,-3.37733 6.44534,-6.30133 10.27734,-8.696 6.804,-4.00133 14.71066,-6.32533 23.168,-6.32533 10.34799,0 19.90799,3.44933 27.59866,9.296 0.88667,0.67066 1.748,1.36533 2.564,2.108 9.53333,8.38533 15.57067,20.67466 15.57067,34.356 0,13.58266 -5.964,25.82533 -15.428,34.18666 z m 11.404,-3.66533 c -1.24667,0.88666 -2.564,1.652 -3.95334,2.252 1.48534,-1.62934 2.852,-3.37867 4.12134,-5.19867 -0.072,0.93333 -0.144,1.892 -0.168,2.94667 z m -10.27734,14.61333 c -2.01333,0.072 -3.85866,0.216 -5.51066,0.408 -3.47334,0.312 -6.51734,0.71867 -9.152,1.24533 3.13866,-1.12533 6.10933,-2.564 8.936,-4.264 3.02,-1.74933 5.84666,-3.80933 8.43333,-6.13333 0.288,-0.048 0.57467,-0.096 0.88667,-0.168 -0.35867,3.21067 -1.65334,6.25333 -3.59334,8.912 z m -20.964,13.00933 c -1.892,0.47867 -3.688,1.43734 -5.31733,2.92267 -0.12,-0.64667 -0.19333,-1.36533 -0.19333,-2.156 0,-3.47333 1.48666,-6.804 9.00933,-8.984 -3.04267,2.684 -3.40267,5.91733 -3.49867,8.21733 z m -7.92933,0.76667 c 0,1.60533 0.24,3.04267 0.67067,4.288 -0.648,0.81467 -1.24667,1.67733 -1.79734,2.636 -0.21466,0.36 -0.40666,0.71867 -0.57466,1.07867 -0.192,-0.36 -0.384,-0.71867 -0.57467,-1.07867 -0.576,-0.95867 -1.17333,-1.82133 -1.82,-2.636 0.45334,-1.24533 0.67067,-2.68267 0.67067,-4.288 0,-2.85067 -0.696,-6.924 -6.68533,-9.77467 2.468,0.384 4.984,0.57467 7.572,0.57467 3.59333,0 7.11466,-0.38267 10.51599,-1.12533 -0.336,0.14266 -0.67066,0.26266 -0.98133,0.40666 -6.27733,2.82667 -6.996,7.02 -6.996,9.91867 z m -1.70133,31.912 c -1.82133,-4.864 -1.77333,-11.548 0,-17.56133 1.74933,6.01333 1.79733,12.69733 0,17.56133 z m -4.312,-29.756 c -1.65333,-1.48533 -3.45067,-2.444 -5.34267,-2.92267 -0.096,-2.3 -0.456,-5.53333 -3.49866,-8.21733 7.524,2.18 9.00933,5.51067 9.00933,8.984 0,0.79067 -0.048,1.50933 -0.168,2.156 z m -20.796,-15.524 c -1.652,-0.192 -3.47333,-0.336 -5.50933,-0.408 -1.79734,-2.468 -3.04267,-5.27067 -3.49734,-8.24133 4.384,3.95333 9.46267,7.14 15.02,9.368 -1.844,-0.288 -3.83333,-0.528 -6.01333,-0.71867 z M 150.7805,198.83717 h -0.024 c -0.048,-2.03734 -0.192,-3.85734 -0.40667,-5.51067 -0.624,-7.26 -1.74933,-12.67333 -3.45067,-16.38666 -2.82666,-6.27734 -7.02,-6.996 -9.91866,-6.996 -1.60534,0 -3.04267,0.216 -4.288,0.67066 -0.79067,-0.64666 -1.65294,-1.24533 -2.63467,-1.82 -0.336,-0.192 -0.7188,-0.384 -1.07813,-0.552 0.35933,-0.19066 0.74213,-0.38266 1.07813,-0.57466 0.98173,-0.57467 1.844,-1.17334 2.63467,-1.82134 1.24533,0.456 2.68266,0.672 4.288,0.672 2.89866,0 7.092,-0.71866 9.91866,-6.996 1.70134,-3.71333 2.82667,-9.128 3.45067,-16.38666 0.21467,-1.65334 0.35867,-3.47467 0.40667,-5.51067 h 0.024 c 2.87466,-2.108 6.22933,-3.47467 9.72666,-3.66533 -8.52933,8.936 -13.77466,21.05866 -13.77466,34.356 0,13.224 5.19733,25.27466 13.63066,34.18666 -3.44933,-0.24 -6.756,-1.60533 -9.58266,-3.66533 z m -13.032,-20.964 c -0.456,-1.892 -1.43867,-3.68933 -2.924,-5.31733 0.648,-0.12 1.36666,-0.192 2.156,-0.192 3.47466,0 6.828,1.48533 8.98533,9.008 -2.684,-3.04267 -5.91867,-3.40267 -8.21733,-3.49867 z m 0,-19.28533 c 2.29866,-0.096 5.53333,-0.45467 8.21733,-3.49734 -2.15733,7.52267 -5.51067,9.008 -8.98533,9.008 -0.78934,0 -1.508,-0.072 -2.156,-0.192 1.48533,-1.62933 2.468,-3.42533 2.924,-5.31866 z m 28.94,-32.55734 c 1.43733,-0.0493 2.75466,-0.12 3.97733,-0.24 -2.252,1.36534 -4.40933,2.92267 -6.42,4.648 0.62133,-1.55733 1.46,-3.04266 2.44267,-4.408 z m 20.96266,-13.00933 c 1.892,-0.456 3.68934,-1.43733 5.34267,-2.92267 0.12,0.64667 0.168,1.36534 0.168,2.156 0,2.25067 -0.624,4.432 -3.09067,6.3 -1.43733,0.192 -2.852,0.48 -4.24133,0.81467 1.53333,-2.228 1.75067,-4.576 1.82133,-6.348 z m 7.93067,-0.76667 c 0,-1.60533 -0.21733,-3.04266 -0.67067,-4.28933 0.64667,-0.79067 1.244,-1.65333 1.82,-2.63467 0.19067,-0.336 0.38267,-0.71866 0.57467,-1.07733 0.168,0.35867 0.36,0.74133 0.57466,1.07733 0.55067,0.98134 1.14934,1.844 1.79734,2.63467 -0.43067,1.24667 -0.67067,2.684 -0.67067,4.28933 0,1.70134 0.26267,3.83334 1.72533,5.86934 -1.12666,-0.072 -2.228,-0.12 -3.35466,-0.12 -1.17467,0 -2.348,0.048 -3.49733,0.12 1.46133,-2.036 1.70133,-4.168 1.70133,-5.86934 z m 1.724,-31.911996 c 1.79733,4.864 1.74933,11.548 0,17.561336 -1.77333,-6.013336 -1.82133,-12.697336 0,-17.561336 z m 4.31333,29.755996 c 1.62933,1.48534 3.42533,2.46667 5.31733,2.92267 0.072,1.772 0.312,4.096 1.79734,6.30133 -1.38934,-0.336 -2.804,-0.576 -4.24134,-0.792 -2.44266,-1.844 -3.06666,-4.02533 -3.06666,-6.276 0,-0.79066 0.0733,-1.50933 0.19333,-2.156 z m 26.28133,15.932 c 1.02934,1.43734 1.892,2.97067 2.53867,4.59867 -1.988,-1.772 -4.096,-3.37733 -6.372,-4.83867 1.19733,0.12 2.46667,0.19067 3.83333,0.24 z m 10.27734,11.59467 c 0.024,0.64667 0.048,1.27067 0.096,1.86933 -0.83867,-1.17466 -1.70134,-2.324 -2.612,-3.45066 0.864,0.48 1.7,1.00666 2.516,1.58133 z m -133.108,30.61733 c 4.86293,-1.82 11.54627,-1.772 17.56093,0 -6.01466,1.74934 -12.698,1.79734 -17.56093,0 z m 182.79466,-0.35866 -0.0947,-0.264 c -0.168,-0.28667 -0.456,-0.47867 -0.74267,-0.55067 -6.13333,-3.33067 -16.17067,-3.25867 -24.26933,-0.12 -0.93467,-0.38267 -1.844,-0.83867 -2.70667,-1.34133 -0.52667,-0.312 -1.02933,-0.62267 -1.50933,-0.95867 2.276,-1.676 3.49733,-4.432 3.49733,-8.09733 0,-3.54534 -2.108,-7.57067 -7.73733,-8.936 1.05333,-1.10267 1.676,-2.66 1.892,-4.648 0.048,-0.67067 -0.432,-1.26934 -1.10267,-1.34134 -0.67067,-0.048 -1.24533,0.43067 -1.31733,1.10267 -0.19067,2.06 -0.81467,4 -3.85734,4.384 -0.66933,0 -1.22266,0.55067 -1.22266,1.22133 0,0.67067 0.55333,1.19734 1.22266,1.19734 7.14,0 9.704,3.64266 9.704,7.02 0,2.372 -0.624,5.03066 -3.04266,6.468 -2.13334,-2.012 -3.30667,-4.336 -3.35467,-6.756 h -0.93467 l -0.36,-0.072 h -0.0707 c -1.86934,-0.0707 -4.504,-0.16667 -6.78,-2.44267 -0.95867,-3.30667 -2.276,-6.44533 -3.85734,-9.44 -0.096,-0.45467 -0.168,-0.93467 -0.24,-1.43733 -0.0707,-0.95867 -0.144,-1.964 -0.19066,-2.99467 1.844,1.86933 3.40133,4.04933 4.47866,6.39733 0.288,0.59867 1.00667,0.86134 1.60534,0.57467 0.62266,-0.264 0.86266,-0.98267 0.576,-1.60533 -1.07867,-2.324 -2.54,-4.504 -4.28934,-6.39734 v -0.024 c 6.39734,-2.084 6.78,-5.94133 6.32534,-8.21733 -0.456,-2.39467 -2.78,-3.42533 -4.792,-3.04133 -0.62267,0.11866 -1.05467,0.74266 -0.93467,1.38933 0.14533,0.62267 0.744,1.05333 1.38933,0.93333 0.67067,-0.144 1.82267,0.072 2.03734,1.15067 0.52666,2.80267 -1.50934,4.76667 -5.99067,5.89333 -0.19067,-0.168 -0.38267,-0.336 -0.57333,-0.47866 -0.096,-2.516 -0.14534,-5.22267 -0.14534,-8.17067 0,-0.66933 -0.55066,-1.22133 -1.22133,-1.22133 -0.67067,0 -1.19733,0.552 -1.19733,1.22133 0,2.22933 0.024,4.33733 0.072,6.37333 -0.57467,-0.384 -1.17334,-0.69466 -1.772,-1.00533 -0.91067,-0.48 -1.84534,-0.83867 -2.804,-1.17467 -0.336,-1.55733 -0.91067,-3.11466 -1.67734,-4.624 -0.288,-0.59866 -0.62266,-1.19733 -0.98133,-1.77333 2.012,0.048 4.12,0.096 6.372,0.096 0.67067,0 1.19867,-0.55067 1.19867,-1.22133 0,-0.67067 -0.528,-1.22134 -1.19867,-1.22134 -2.94667,0 -5.67867,-0.0493 -8.16933,-0.12 -0.168,-0.216 -0.336,-0.408 -0.504,-0.6 1.12666,-4.48 3.092,-6.516 5.89466,-5.96533 1.10134,0.192 1.29334,1.34267 1.17334,2.01333 -0.14267,0.64667 0.288,1.26934 0.93466,1.38934 0.62267,0.12 1.24534,-0.288 1.36534,-0.93467 0.384,-1.988 -0.64667,-4.336 -3.01867,-4.79067 -2.3,-0.45466 -6.156,-0.072 -8.24133,6.324 -1.89334,-1.74933 -4.072,-3.21066 -6.42,-4.28933 -0.624,-0.28667 -1.34267,-0.0227 -1.60534,0.576 -0.288,0.59867 -0.024,1.31733 0.59867,1.62933 2.324,1.07867 4.504,2.61067 6.372,4.48 -1.02933,-0.072 -2.036,-0.144 -2.96933,-0.216 -2.396,-0.31066 -4.33734,-0.74266 -5.94134,-1.26933 -0.672,-0.288 -1.34266,-0.57467 -2.01333,-0.81467 l -0.048,-0.024 c -2.56267,-1.26933 -3.88,-2.82666 -4.552,-4.408 -0.69467,-1.55733 -0.74267,-3.13866 -0.76533,-4.36 v -0.072 l -0.0973,-0.336 v -0.93466 c -2.41866,-0.072 -4.72,-1.24534 -6.756,-3.37734 1.43734,-2.42 4.12134,-3.04266 6.468,-3.04266 3.40267,0 7.02,2.56266 7.02,9.72666 0,0.67067 0.528,1.19734 1.19867,1.19734 0.66933,0 1.22267,-0.52667 1.22267,-1.19734 0.38266,-3.06666 2.34666,-3.66533 4.40666,-3.88 0.648,-0.0493 1.15067,-0.648 1.07867,-1.31866 -0.072,-0.67067 -0.67067,-1.15067 -1.31733,-1.07734 -2.012,0.19067 -3.57067,0.81467 -4.672,1.868 -1.36667,-5.63066 -5.39067,-7.73866 -8.93734,-7.73866 -3.66533,0 -6.42,1.24533 -8.09733,3.52133 -0.33467,-0.47867 -0.64667,-1.00533 -0.95867,-1.53333 -0.50133,-0.86134 -0.93333,-1.772 -1.34,-2.70667 3.16134,-8.097333 3.23334,-18.135999 -0.12,-24.245332 -0.072,-0.310667 -0.264,-0.598667 -0.55066,-0.766667 l -0.26533,-0.07067 -0.0947,-0.04933 h -0.504 l -0.0947,0.04933 -0.264,0.07067 c -0.28666,0.168 -0.48,0.456 -0.55066,0.766667 -3.32934,6.109333 -3.25867,16.147999 -0.0973,24.245332 -0.40533,0.93467 -0.86133,1.84533 -1.364,2.70667 -0.31066,0.528 -0.624,1.05466 -0.95866,1.53333 -1.67734,-2.276 -4.432,-3.52133 -8.09734,-3.52133 -3.54533,0 -7.57066,2.108 -8.936,7.73866 -1.10266,-1.05333 -2.66,-1.67733 -4.64933,-1.868 -0.66933,-0.0733 -1.26933,0.40667 -1.34,1.07734 -0.0493,0.67066 0.43067,1.26933 1.10133,1.31866 2.06134,0.21467 4.00134,0.81334 4.384,3.88 0,0.67067 0.552,1.19734 1.22267,1.19734 0.67067,0 1.22133,-0.52667 1.22133,-1.19734 0,-7.164 3.61734,-9.72666 6.996,-9.72666 2.37067,0 5.03067,0.62266 6.468,3.04266 -2.012,2.132 -4.336,3.30534 -6.756,3.37734 v 0.93466 l -0.072,0.336 v 0.072 c -0.096,2.58667 -0.216,6.636 -6.10933,9.128 l -0.28667,0.0947 c -1.77333,0.71867 -4.04933,1.29467 -6.924,1.65333 -0.95866,0.072 -1.964,0.144 -2.99466,0.216 1.868,-1.86933 4.048,-3.40133 6.396,-4.48 0.59866,-0.312 0.86266,-1.03066 0.576,-1.62933 -0.264,-0.59867 -0.98267,-0.86267 -1.60667,-0.576 -2.324,1.07867 -4.50267,2.56533 -6.39467,4.31333 -1.75066,-5.29466 -4.672,-6.492 -6.92533,-6.492 -0.47867,0 -0.90933,0.072 -1.31733,0.144 -2.396,0.45467 -3.42534,2.80267 -3.04134,4.79067 0.12,0.64667 0.74134,1.05467 1.38934,0.93467 0.62266,-0.12 1.05333,-0.74267 0.93333,-1.38934 -0.144,-0.67066 0.072,-1.82133 1.14933,-2.01333 2.804,-0.55067 4.768,1.48533 5.89467,5.96533 -0.168,0.192 -0.336,0.384 -0.47867,0.6 -2.516,0.0707 -5.22266,0.12 -8.17066,0.12 -0.67067,0 -1.22134,0.55067 -1.22134,1.22134 0,0.67066 0.55067,1.22133 1.22134,1.22133 2.22933,0 4.33733,-0.048 6.37333,-0.096 -0.35867,0.576 -0.69467,1.17467 -1.00667,1.77333 -0.59866,1.19734 -1.07733,2.42 -1.41333,3.64134 -2.94667,0.024 -5.89333,0.71866 -8.72,2.15733 -0.6,0.31067 -1.19867,0.62133 -1.77333,1.00533 0.048,-2.036 0.096,-4.144 0.096,-6.37333 0,-0.66933 -0.55067,-1.22133 -1.22134,-1.22133 -0.672,0 -1.19866,0.552 -1.19866,1.22133 0,2.948 -0.048,5.65467 -0.144,8.14667 -0.21467,0.16666 -0.40667,0.33466 -0.59867,0.50266 -4.48,-1.12666 -6.516,-3.09066 -5.96533,-5.89333 0.192,-1.07867 1.34133,-1.29467 2.012,-1.15067 0.64666,0.12 1.27066,-0.31066 1.39066,-0.93333 0.11867,-0.64667 -0.288,-1.27067 -0.93466,-1.38933 -1.98934,-0.384 -4.336,0.64666 -4.792,3.04133 -0.43067,2.276 -0.072,6.13333 6.34933,8.21733 v 0.024 c -1.77333,1.89334 -3.25867,4.07334 -4.31333,6.39734 -0.288,0.62266 -0.0227,1.34133 0.59866,1.60533 0.6,0.28667 1.29467,0.024 1.60667,-0.57467 1.07733,-2.348 2.61067,-4.528 4.47867,-6.39733 -0.072,1.03067 -0.14267,2.036 -0.21467,2.99467 -1.62933,13.00933 -7.49867,13.2 -10.85333,13.32 h -0.096 l -0.33467,0.072 h -0.93467 c -0.072,2.42 -1.24666,4.744 -3.35466,6.756 -2.44254,-1.43734 -3.06587,-4.096 -3.06587,-6.468 0,-3.37734 2.5632,-7.02 9.72587,-7.02 0.672,0 1.19866,-0.52667 1.19866,-1.19734 0,-0.67066 -0.52666,-1.22133 -1.19866,-1.22133 -3.06667,-0.384 -3.66534,-2.324 -3.88,-4.384 -0.048,-0.672 -0.64667,-1.15067 -1.31734,-1.10267 -0.672,0.072 -1.15066,0.67067 -1.07866,1.34134 0.192,1.988 0.81466,3.54533 1.86933,4.648 -5.63067,1.36533 -7.73907,5.39066 -7.73907,8.936 0,3.66533 1.2464,6.42133 3.5224,8.09733 -0.4792,0.336 -1.0068,0.64667 -1.53386,0.95867 -0.862,0.50266 -1.77347,0.95866 -2.7072,1.34133 -8.09747,-3.13867 -18.13494,-3.21067 -24.2448,0.12 -0.312,0.072 -0.5756,0.264 -0.76667,0.55067 l -0.0719,0.264 -0.048,0.096 v 0.50263 l 0.048,0.096 0.0719,0.264 c 0.19107,0.28667 0.45467,0.47867 0.76667,0.55067 6.10986,3.35333 16.14733,3.28267 24.2448,0.12 0.93373,0.40667 1.8452,0.83733 2.7072,1.34133 0.52706,0.312 1.05466,0.62267 1.53386,0.95867 -2.276,1.676 -3.5224,4.432 -3.5224,8.09733 0,3.54534 2.1084,7.57067 7.73907,8.936 -1.05467,1.10267 -1.67733,2.66 -1.86933,4.672 -0.072,0.64667 0.40666,1.24533 1.07866,1.31733 0.67067,0.072 1.26934,-0.43066 1.31734,-1.10266 0.21466,-2.036 0.81333,-4 3.88,-4.384 0.672,0 1.19866,-0.55067 1.19866,-1.22133 0,-0.67067 -0.52666,-1.19867 -1.19866,-1.19867 -7.16267,0 -9.72587,-3.64133 -9.72587,-7.01867 0,-2.348 0.62333,-5.032 3.06587,-6.468 2.108,2.036 3.28266,4.336 3.35466,6.756 h 0.93467 l 0.33467,0.0707 0.096,0.024 c 3.35466,0.096 9.224,0.288 10.85333,13.32133 0.072,0.93333 0.14267,1.94 0.21467,2.97067 -1.868,-1.86934 -3.40134,-4.04934 -4.47867,-6.39734 -0.312,-0.59866 -1.00667,-0.86266 -1.60667,-0.57466 -0.62133,0.26267 -0.88666,0.98133 -0.59866,1.60533 1.05466,2.348 2.54,4.528 4.28933,6.42 -5.296,1.72533 -6.44533,4.648 -6.44533,6.924 0,0.47867 0.048,0.91067 0.12,1.31733 0.456,2.372 2.80266,3.40267 4.792,3.02 0.64666,-0.12 1.05333,-0.744 0.93466,-1.39066 -0.12,-0.62267 -0.744,-1.05467 -1.39066,-0.93467 -0.67067,0.144 -1.82,-0.0707 -2.012,-1.14933 -0.55067,-2.80267 1.48533,-4.768 5.96533,-5.89334 0.192,0.168 0.384,0.336 0.59867,0.50267 0.096,2.492 0.144,5.19867 0.144,8.17067 0,0.66933 0.52666,1.19733 1.19866,1.19733 0.67067,0 1.22134,-0.528 1.22134,-1.19733 0,-2.252 -0.048,-4.36134 -0.096,-6.37334 0.57466,0.35867 1.17333,0.67067 1.77333,0.98267 2.63467,1.34133 5.36533,2.036 8.09733,2.132 0.26267,2.252 0.93467,4.504 2.036,6.684 0.312,0.59867 0.648,1.19733 1.00667,1.772 -2.036,-0.048 -4.144,-0.072 -6.37333,-0.072 -0.67067,0 -1.22134,0.528 -1.22134,1.19867 0,0.67066 0.55067,1.22133 1.22134,1.22133 2.948,0 5.65466,0.048 8.17066,0.144 0.14267,0.192 0.31067,0.384 0.47867,0.57467 -1.12667,4.48133 -3.09067,6.516 -5.89467,5.98933 -1.07733,-0.21467 -1.29333,-1.36533 -1.14933,-2.036 0.12,-0.64667 -0.31067,-1.26933 -0.93333,-1.38933 -0.648,-0.12 -1.26934,0.31066 -1.38934,0.93466 -0.384,2.012 0.64534,4.336 3.04134,4.792 2.276,0.45467 6.13333,0.0707 8.24266,-6.32533 1.892,1.748 4.07067,3.23467 6.39467,4.288 0.624,0.288 1.34267,0.024 1.60667,-0.57467 0.28666,-0.62266 0.0227,-1.31733 -0.576,-1.60533 -2.348,-1.07867 -4.528,-2.636 -6.396,-4.48 1.03066,0.048 2.036,0.11867 2.99466,0.192 13.008,1.628 13.20134,7.49867 13.32,10.876 v 0.072 l 0.072,0.336 v 0.93333 c 2.42,0.072 4.744,1.24667 6.756,3.37867 -1.43733,2.42 -4.09733,3.04267 -6.468,3.04267 -3.37866,0 -6.996,-2.564 -6.996,-9.72667 0,-0.67067 -0.55066,-1.19867 -1.22133,-1.19867 -0.67067,0 -1.22267,0.528 -1.22267,1.19867 -0.38266,3.06667 -2.32266,3.66533 -4.384,3.88 -0.67066,0.0733 -1.15066,0.648 -1.10133,1.31867 0.0707,0.67066 0.67067,1.14933 1.34,1.07733 1.98933,-0.19067 3.54667,-0.81467 4.64933,-1.868 1.36534,5.63067 5.39067,7.73867 8.936,7.73867 3.66534,0 6.42,-1.24667 8.09734,-3.49867 0.33466,0.48 0.648,0.98267 0.95866,1.50933 0.50267,0.86267 0.95867,1.77334 1.364,2.708 -3.16133,8.09734 -3.232,18.136 0.0973,24.26814 0.0707,0.288 0.264,0.57453 0.55066,0.7428 l 0.288,0.0957 0.0707,0.024 0.264,0.024 0.24,-0.024 0.0947,-0.024 0.26533,-0.0957 c 0.28666,-0.16827 0.47866,-0.4548 0.55066,-0.7428 3.35334,-6.13214 3.28134,-16.1708 0.12,-24.26814 0.40667,-0.93466 0.83867,-1.84533 1.34,-2.708 0.312,-0.52666 0.624,-1.02933 0.95867,-1.50933 1.67733,2.252 4.432,3.49867 8.09733,3.49867 3.54667,0 7.57067,-2.108 8.93734,-7.73867 1.10133,1.05333 2.66,1.67733 4.672,1.868 0.64666,0.072 1.24533,-0.40667 1.31733,-1.07733 0.072,-0.67067 -0.43067,-1.24534 -1.07867,-1.31867 -2.06,-0.21467 -4.024,-0.81333 -4.40666,-3.88 0,-0.67067 -0.55334,-1.19867 -1.22267,-1.19867 -0.67067,0 -1.19867,0.528 -1.19867,1.19867 0,7.16267 -3.61733,9.72667 -7.02,9.72667 -2.34666,0 -5.03066,-0.62267 -6.468,-3.04267 2.036,-2.132 4.33734,-3.30667 6.756,-3.37867 v -0.93336 l 0.0973,-0.336 v -0.072 c 0.0947,-3.37733 0.28533,-9.248 13.32,-10.876 0.93333,-0.0733 1.94,-0.144 2.96933,-0.192 -1.844,1.844 -4.048,3.40133 -6.372,4.48 -0.62267,0.288 -0.88667,0.98267 -0.59867,1.60533 0.26267,0.59867 0.98134,0.86267 1.60534,0.57467 2.348,-1.05333 4.52666,-2.54 6.42,-4.288 1.724,5.27067 4.648,6.468 6.9,6.468 0.48,0 0.93333,-0.072 1.34133,-0.14267 2.372,-0.456 3.40267,-2.78 3.01867,-4.792 -0.12,-0.624 -0.74267,-1.05466 -1.36534,-0.93466 -0.64666,0.12 -1.07733,0.74266 -0.93466,1.38933 0.12,0.67067 -0.072,1.82133 -1.17334,2.036 -2.78,0.52667 -4.768,-1.508 -5.89466,-5.96533 0.168,-0.21467 0.336,-0.40667 0.504,-0.59867 2.49066,-0.096 5.22266,-0.144 8.16933,-0.144 0.67067,0 1.19867,-0.55067 1.19867,-1.22133 0,-0.67067 -0.528,-1.19867 -1.19867,-1.19867 -2.252,0 -4.36,0.024 -6.372,0.072 0.35867,-0.57467 0.69333,-1.17333 0.98133,-1.772 1.29467,-2.516 1.988,-5.176 2.13334,-7.81067 0.79066,-0.28666 1.58,-0.59866 2.348,-1.00533 0.59866,-0.312 1.19733,-0.624 1.772,-1.00667 -0.048,2.036 -0.072,4.14534 -0.072,6.39734 0,0.66933 0.52666,1.19733 1.19733,1.19733 0.67067,0 1.22133,-0.528 1.22133,-1.19733 0,-2.972 0.0493,-5.67867 0.14534,-8.17067 0.19066,-0.16667 0.38266,-0.33467 0.59866,-0.50267 4.47867,1.12534 6.492,3.09067 5.96534,5.89334 -0.21467,1.07866 -1.36667,1.29333 -2.03734,1.14933 -0.64533,-0.12 -1.244,0.312 -1.38933,0.93467 -0.12,0.64666 0.312,1.27066 0.93467,1.39066 2.012,0.38267 4.336,-0.648 4.792,-3.02 0.45466,-2.3 0.072,-6.156 -6.32534,-8.24133 1.74934,-1.892 3.21067,-4.072 4.28934,-6.42 0.28666,-0.624 0.0467,-1.34266 -0.576,-1.60533 -0.59867,-0.288 -1.31734,-0.024 -1.60534,0.57466 -1.07733,2.348 -2.63466,4.528 -4.47866,6.39734 0.0467,-1.03067 0.12,-2.03734 0.19066,-2.97067 0.144,-1.05467 0.312,-2.01333 0.48,-2.92267 1.26934,-2.37333 2.324,-4.88799 3.16134,-7.47599 2.34933,-2.77867 5.224,-2.87334 7.236,-2.92267 l 0.0707,-0.024 0.36,-0.0707 h 0.93467 c 0.048,-2.42 1.22133,-4.72 3.35467,-6.756 2.41866,1.436 3.04266,4.12 3.04266,6.468 0,3.37734 -2.564,7.01867 -9.704,7.01867 -0.66933,0 -1.22266,0.528 -1.22266,1.19867 0,0.67066 0.55333,1.22133 1.22266,1.22133 3.04267,0.384 3.66667,2.348 3.85734,4.384 0.072,0.672 0.64666,1.17466 1.31733,1.10266 0.67067,-0.072 1.15067,-0.67066 1.10267,-1.31733 -0.216,-2.012 -0.83867,-3.56933 -1.892,-4.672 5.62933,-1.36533 7.73733,-5.39066 7.73733,-8.936 0,-3.66533 -1.22133,-6.42133 -3.49733,-8.09733 0.48,-0.336 0.98266,-0.64667 1.50933,-0.95867 0.86267,-0.504 1.772,-0.93466 2.70667,-1.34133 8.09866,3.16267 18.136,3.23333 24.26933,-0.12 0.28667,-0.072 0.57467,-0.264 0.74267,-0.55067 l 0.0947,-0.264 0.0253,-0.096 0.024,-0.24 -0.024,-0.26266 -0.0253,-0.096"
     inkscape:connector-curvature="0" /><path
     id="path62"
     style="fill:#ffffff;fill-opacity:1;fill-rule:nonzero;stroke:none;stroke-width:0.13333333"
     d="m 195.308,179.14134 2.17466,-9.60267 h -0.47733 c -0.90133,2.91067 -2.43333,5.144 -4.59067,6.416 l 1.94,3.18667 h 0.95334"
     inkscape:connector-curvature="0" /><path
     id="path64"
     style="fill:#ffffff;fill-opacity:1;fill-rule:nonzero;stroke:none;stroke-width:0.13333333"
     d="M 171.54666,178.672 H 170.952 l -0.008,0.46934 h 11.17333 l 0.26133,-2.008 H 181.624 v -27.5 c 0.0347,-1.64 1.36533,-2.96134 3.012,-2.96134 h 0.59333 l 0.008,-0.468 H 170.944 l 0.008,0.468 h 0.59466 c 1.64667,0 2.98534,1.32134 3.01867,2.96134 V 175.712 c -0.0333,1.63867 -1.372,2.96 -3.01867,2.96"
     inkscape:connector-curvature="0" /><path
     id="path66"
     style="fill:#ffffff;fill-opacity:1;fill-rule:nonzero;stroke:none;stroke-width:0.13333333"
     d="m 224.72799,166.31334 -0.008,0.009 c -0.696,1.16933 -1.62666,2.15467 -2.83466,3.00533 -0.516,0.356 -1.068,0.65067 -1.62,0.948 l -0.70134,0.38 c -1.60933,0.88934 -3.22133,1.804 -4.80133,2.71334 -1.42933,0.81066 -2.856,1.62 -4.28667,2.424 -0.30266,-0.58 -0.604,-1.156 -0.91066,-1.71734 l -1.664,-3.204 c -1.15467,-2.22533 -2.31334,-4.456 -3.46,-6.68533 -0.4,-0.77867 -0.63334,-1.73867 -0.736,-3.04 -0.18267,-1.92 0.17466,-3.51333 1.08933,-4.86667 1.224,-1.79466 2.75733,-2.66933 4.692,-2.66933 l 0.244,0.004 c 1.61067,0.056 2.89733,0.82533 3.92667,2.336 0.39466,0.60267 0.712,1.25867 0.99466,2.12 0.10534,0.38933 0.39734,0.69867 0.77867,0.82533 0.38667,0.13067 0.80267,0.0547 1.11733,-0.192 0.816,-0.63733 1.48,-1.044 2.16534,-1.32266 1.43466,-0.6 2.932,-0.58267 4.20133,0.0493 1.32667,0.65733 2.324,1.92667 2.73333,3.48933 0.484,1.82 0.18134,3.584 -0.92,5.39334 z m -0.748,-11.02934 c -1.90266,-0.94133 -4.09466,-0.98133 -6.17866,-0.11866 -0.47334,0.19333 -0.944,0.43333 -1.42934,0.736 -0.212,-0.44134 -0.452,-0.868 -0.724,-1.28134 -1.47866,-2.17333 -3.44266,-3.31733 -5.832,-3.39733 -2.824,-0.12667 -5.27333,1.172 -7.00266,3.712 -1.224,1.81067 -1.72667,3.976 -1.49467,6.42 0.0787,1.012 0.27067,2.52 0.992,3.92667 1.148,2.23333 2.308,4.468 3.464,6.69466 l 1.67467,3.22667 c 0.12,0.21733 0.22533,0.42933 0.34,0.64533 l -8.032,13.77734 -14.61467,-24.00667 H 184.712 l -3.90534,30.188 c -0.24,1.844 -1.74933,2.94666 -3.42533,2.94666 h -0.74267 v 0.45467 h 9.84667 v -0.43067 h -0.744 c -1.00533,0 -1.94,-1.00666 -1.844,-2.01333 l 1.86933,-16.93733 12.09867,20.34 H 198.32 c 0.048,-2.30134 1.82133,-5.22267 1.82133,-5.22267 l 8.792,-15.23733 1.868,17.05733 c 0.12,1.00667 -0.81334,2.01333 -1.82,2.01333 h -0.74267 v 0.43067 h 14.13467 v -0.45467 h -0.74267 c -1.67733,0 -3.13867,-1.10266 -3.42533,-2.94666 L 215.52399,175.692 c 0.14267,-0.0813 0.28534,-0.16133 0.428,-0.24266 1.57467,-0.908 3.17334,-1.81334 4.77734,-2.7 l 0.66933,-0.364 c 0.62933,-0.33867 1.25733,-0.67867 1.856,-1.09067 1.49733,-1.056 2.65067,-2.27733 3.52,-3.73867 1.44133,-2.36133 1.83867,-4.80266 1.18933,-7.248 -0.584,-2.22933 -2.03733,-4.05866 -3.984,-5.024"
     inkscape:connector-curvature="0" /></svg>